<?xml version="1.0" encoding="UTF-8"?>
<svg width="16" height="16" version="1.1" viewBox="0 0 4.2329 4.2329" xmlns="http://www.w3.org/2000/svg">
 <g transform="matrix(.8889 0 0 .8889 -7.4987e-6 -.47033)" fill="#fff">
  <g stroke-width="1.125">
   <path d="m1.6933 4.717c0.062229 0.32774 0.34859 0.57406 0.69498 0.57406h5.159e-4c0.34639 0 0.63275-0.24633 0.69498-0.57406z"/>
   <rect x="2.0164" y=".52911" width=".74419" height=".74405" ry=".37202"/>
   <path transform="matrix(.8407 0 0 .8407 -1.1772 1.0635)" d="m2.6445 2.6465c-0.39217 0-0.70898 0.31682-0.70898 0.70898 0 0.39217 0.31682 0.70703 0.70898 0.70703h3.1758c0.39217 0 0.70898-0.31486 0.70898-0.70703s-0.31682-0.70898-0.70898-0.70898z"/>
  </g>
  <path d="m1.0532 4.0032v-1.6734c0-0.74794 0.59554-1.3501 1.3353-1.3501s1.3353 0.60213 1.3353 1.3501v1.6734" stroke-linejoin="round" stroke-width=".28125"/>
 </g>
</svg>
