<?xml version="1.0" encoding="UTF-8"?>
<svg width="4" height="4" version="1.1" viewBox="0 0 4 4" xmlns="http://www.w3.org/2000/svg">
 <g stroke-width=".0286">
  <path d="m1.0678 3.4659c0 0.075865-0.013859 0.14588-0.041576 0.21007-0.027717 0.064209-0.065646 0.12035-0.11379 0.1685-0.04814 0.048119-0.10503 0.086027-0.17068 0.11379-0.065646 0.02771-0.13494 0.041554-0.20788 0.041554-0.075858 0-0.14588-0.013859-0.21007-0.041554-0.064187-0.02771-0.12035-0.065675-0.16849-0.11379-0.04814-0.04814-0.086098-0.1043-0.11379-0.1685-0.027717-0.064194-0.041576-0.13421-0.041576-0.21007 0-0.072919 0.013859-0.14223 0.041576-0.20788 0.027717-0.065675 0.065646-0.12257 0.11379-0.17069 0.048141-0.04814 0.1043-0.086098 0.16849-0.11379 0.064187-0.02771 0.13421-0.041576 0.21007-0.041576 0.07294 0 0.14223 0.013866 0.20788 0.041576 0.065646 0.027724 0.12257 0.065646 0.17068 0.11379 0.048141 0.048126 0.086098 0.10503 0.11379 0.17069 0.027717 0.065632 0.041576 0.13492 0.041576 0.20788"/>
  <path d="m0.3808 1.4399c0.30048 0 0.58281 0.057637 0.84682 0.17284 0.26404 0.11527 0.49456 0.27134 0.6915 0.46825 0.19695 0.19695 0.35304 0.42742 0.46825 0.69143 0.11527 0.26407 0.17284 0.54634 0.17284 0.84689 0 0.10503-0.037192 0.19472-0.11158 0.26914-0.074399 0.074399-0.16411 0.11158-0.26917 0.11158-0.10503 0-0.19472-0.037178-0.26914-0.11158-0.074399-0.074399-0.1116-0.16411-0.1116-0.26914 0-0.19549-0.037199-0.37929-0.1116-0.55141-0.074399-0.17212-0.17579-0.32237-0.30416-0.4508-0.12837-0.12838-0.27863-0.22976-0.4508-0.30417-0.17212-0.074385-0.35595-0.11158-0.55141-0.11158-0.10503 0-0.19472-0.037192-0.26915-0.11159-0.074399-0.074406-0.1116-0.16412-0.1116-0.26916 0-0.10503 0.037199-0.19472 0.1116-0.26915 0.074399-0.074413 0.16412-0.11161 0.26915-0.11161"/>
  <path d="m0.38081 7.185e-5c0.33261 0 0.65281 0.043049 0.96059 0.12908 0.30778 0.086098 0.59589 0.20788 0.86434 0.36542 0.26843 0.15754 0.5128 0.34647 0.73305 0.56672 0.22027 0.22028 0.40918 0.46463 0.56672 0.73305 0.15754 0.26844 0.27932 0.55656 0.36542 0.86434 0.086098 0.30778 0.12908 0.628 0.12908 0.96059 0 0.10503-0.037192 0.19472-0.11159 0.26914-0.074399 0.07442-0.16411 0.11158-0.26914 0.11158-0.10504 0-0.19472-0.037178-0.26917-0.11158-0.074385-0.074399-0.11158-0.16411-0.11158-0.26914 0-0.26261-0.034289-0.51573-0.10285-0.75936-0.068564-0.24356-0.1649-0.47119-0.28883-0.68271-0.124-0.21153-0.27274-0.4041-0.44636-0.57766-0.1736-0.1736-0.36613-0.32237-0.57766-0.44636-0.21153-0.124-0.43907-0.22028-0.6827-0.28883-0.24363-0.068564-0.49671-0.10285-0.75929-0.10285-0.10503 0-0.19472-0.0372-0.26915-0.1116-0.074399-0.074399-0.1116-0.16412-0.1116-0.26915 0-0.10503 0.037199-0.19472 0.1116-0.26915 0.074392-0.074392 0.16411-0.11159 0.26914-0.11159"/>
 </g>
</svg>
